<svg width="24" height="24" viewBox="0 0 24 24" fill="none" xmlns="http://www.w3.org/2000/svg">
<path fill-rule="evenodd" clip-rule="evenodd" d="M5.14252 4.4855C5.32324 4.1843 5.64875 4 6.00001 4H18C18.3513 4 18.6768 4.1843 18.8575 4.4855L21.8575 9.4855C22.083 9.86132 22.0375 10.3402 21.7453 10.6668L13.2453 20.1668C13.2352 20.178 13.2249 20.1891 13.2143 20.1999C13.056 20.3614 12.8671 20.4897 12.6586 20.5774C12.4501 20.665 12.2262 20.7101 12 20.7101C11.7738 20.7101 11.55 20.665 11.3414 20.5774C11.1329 20.4897 10.944 20.3614 10.7857 20.1999C10.7752 20.1891 10.7648 20.178 10.7548 20.1668L2.25477 10.6668C1.96253 10.3402 1.91703 9.86132 2.14252 9.4855L5.14252 4.4855ZM6.5662 6L4.23671 9.88248L12 18.5591L19.7633 9.88248L17.4338 6H6.5662Z" fill="#584E80"/>
<path fill-rule="evenodd" clip-rule="evenodd" d="M9.86717 5.06987C10.3809 5.27265 10.6329 5.85348 10.4302 6.36719L9.07246 9.80668L12.4346 18.6445C12.631 19.1606 12.3718 19.7383 11.8556 19.9347C11.3394 20.131 10.7617 19.8718 10.5654 19.3556L7.06535 10.1556C6.97669 9.92253 6.97829 9.66477 7.06985 9.43284L8.56985 5.63286C8.77263 5.11915 9.35346 4.86709 9.86717 5.06987Z" fill="#584E80"/>
<path fill-rule="evenodd" clip-rule="evenodd" d="M13.6328 5.06987C13.1191 5.27265 12.8671 5.85348 13.0698 6.36719L14.4275 9.80668L11.0654 18.6445C10.869 19.1606 11.1282 19.7383 11.6444 19.9347C12.1606 20.131 12.7383 19.8718 12.9346 19.3556L16.4346 10.1556C16.5233 9.92253 16.5217 9.66477 16.4302 9.43284L14.9302 5.63286C14.7274 5.11915 14.1465 4.86709 13.6328 5.06987Z" fill="#584E80"/>
<path fill-rule="evenodd" clip-rule="evenodd" d="M21 11H3V9H21V11Z" fill="#584E80"/>
</svg>
