<svg width="24" height="24" viewBox="8 8 24 24" fill="none" xmlns="http://www.w3.org/2000/svg" aria-hidden="true">
  <!-- Figma TopBar Left Icon � node 6332:6693 (Atoms back arrow) -->
  <path fill-rule="evenodd" clip-rule="evenodd" d="M12 20C12 19.4477 12.4477 19 13 19H27C27.5523 19 28 19.4477 28 20C28 20.5523 27.5523 21 27 21H13C12.4477 21 12 20.5523 12 20Z" fill="#FFFFFF"/>
  <path fill-rule="evenodd" clip-rule="evenodd" d="M12.2929 19.2929C12.6834 18.9024 13.3166 18.9024 13.7071 19.2929L19.7071 25.2929C20.0976 25.6834 20.0976 26.3166 19.7071 26.7071C19.3166 27.0976 18.6834 27.0976 18.2929 26.7071L12.2929 20.7071C11.9024 20.3166 11.9024 19.6834 12.2929 19.2929Z" fill="#FFFFFF"/>
  <path fill-rule="evenodd" clip-rule="evenodd" d="M19.7071 13.2929C20.0976 13.6834 20.0976 14.3166 19.7071 14.7071L13.7071 20.7071C13.3166 21.0976 12.6834 21.0976 12.2929 20.7071C11.9024 20.3166 11.9024 19.6834 12.2929 19.2929L18.2929 13.2929C18.6834 12.9024 19.3166 12.9024 19.7071 13.2929Z" fill="#FFFFFF"/>
</svg>
